<svg xmlns="http://www.w3.org/2000/svg" viewBox="0 0 6831.33 1909.79">
    <defs>
        <style>
            .color {
                <!-- Couleur de remplissage -->
                fill: #FFF;
            }
        </style>
    </defs>
    <title>Logo HEPL</title>
    <g id="hepl">
        <!-- CONTOUR -->
        <path class="color" d="M3425,.32h3392c14.41,0,14.41,0,14.41,14v1882c0,13.36,0,13.37-13.08,13.37q-3012,0-6023.92.1a53.08,53.08,0,0,1-23.05-5.07q-62.56-29-125-58.06c-57.71-26.8-111.31-60.09-161.57-99-56-43.32-110.19-88.74-155.85-143.12-93.31-111.11-173-230.67-225.09-367.22C82.8,1182.5,66.58,1126.25,50.81,1069.8c-12.27-44-23-88.24-30.14-133.39C12.53,884.92,9.85,833.09,8.92,781.06,7.21,684.42,7.23,587.77,6.43,491.12,6,433.81,5,376.5,4.24,319.19q-.93-69-1.94-137.94C1.57,133.94.67,86.63,0,39.32A149.54,149.54,0,0,1,1.27,18.39C2.49,8.84,7.68,3.54,17.11,1.56A60.31,60.31,0,0,1,28,.36Q43.5,0,59,0q570.5.06,1141,.14,1112.51,0,2225,0ZM1003,747.77c3.08,8.65,2.54,17.63,1,26.44-6.49,37.74-22.6,70.87-48.58,99.08-23.81,25.85-52.7,44.8-83.6,60.91-19.49,10.17-39.18,19.93-58.78,29.87-42.8,21.7-85.14,44.19-125.45,70.35C639,1066,596.3,1103.68,563.85,1152.11c-23.13,34.51-42.69,70.89-51.79,111.79-7.27,32.64-8.94,66-8.82,99.38a289.35,289.35,0,0,0,11.59,81.87c4.92,16.59,9.53,33.28,14.36,49.9,14,48,30.07,95.27,53.6,139.64,2,3.84,3.73,7.79,7.57,10.31,6.89,4.54,10.41,3.86,14.68-3a25.36,25.36,0,0,0,4.24-13.07,408.28,408.28,0,0,1,14-95.69c9.25-34.8,20.19-69,37.32-101,11.77-21.93,26.53-41.52,45.82-57.48,4.72-3.91,11.11-8.28,16-6,5.48,2.48,6.23,10.27,6.24,16.75,0,8.67.17,17.33.18,26q.2,137,.32,274c0,48.43,6.43,95.68,25.3,140.66,6.33,15.07,2.74,12.18,18.53,12.18q2986.94.07,5973.87,0c16.25,0,13.75,2.08,13.75-13.63q.07-870.48,0-1741c0-15.27,2-13.34-13.11-13.34q-2700,0-5399.89,0a67.86,67.86,0,0,1-7,0c-4.11-.42-6.69,1-8.9,4.72-26,43.17-64.43,69-112.67,81.54-44.22,11.49-89.38,14.27-134.74,14.85-51.31.66-102.62-1.67-153.94.11-33.67,1.17-67.19,3.31-100.57,8.06-32.08,4.56-63,14.16-94.5,21.08C674.6,214,622.7,244.25,574.54,282.13c-18.23,14.33-32.72,31.63-39.71,53.93-6.24,19.95-18.54,33.7-36.36,44.28-43,25.51-85.27,52.16-125.56,81.84-27.94,20.58-55,42.24-78.75,67.66-2.74,2.93-5.57,5.75-7.54,9.29-5.52,9.89-2.78,19.17,7.32,24.22,6.77,3.38,14.14,3.67,21.48,3.42a113.32,113.32,0,0,1,18,.65c8.35,1,9.76,2.88,8.37,11-1.3,7.63-4.54,14.61-7.53,21.65-8.63,20.31-6.54,40,4.72,58.36,14.53,23.63,35.48,40.41,60.6,51.9,8.54,3.91,13.18,2.72,19.4-4.66a147.51,147.51,0,0,0,12.26-17c19.39-31.14,48-43.76,83.81-42.27,26.77,1.12,51.71,8.79,75.38,21.09s45.36,28,66.62,44.06c9.72,7.34,12.21,16.89,8,28.45q-24.22,66.4-91.59,88c-32.18,10.32-64.4,8.36-96.5-.66-5.14-1.44-10.26-3-15.63-3-11.2-.05-18.4,5.79-20.18,16.77a57.82,57.82,0,0,0-.49,13c2.57,38.29,15.14,72.78,39.26,102.89,14.07,17.56,31.45,31.68,48.5,46,10.89,9.16,19.07,7.32,28-4.16,7.76-10,15.43-20.09,23.48-29.86,28.66-34.73,64.11-59.89,106.75-74.65,27.89-9.65,56.71-14.47,86.09-16.43,34.34-2.29,68.17-7.44,101.06-18,51.94-16.75,93.51-46.12,118.14-96.33q2.63-5.38,5.22-10.78C998.24,750.34,999.19,747.74,1003,747.77Z" />
        <!-- OEIL -->
        <path class="color" d="M630,403.43c-5.32,0-10.63.05-15.95,0a29.53,29.53,0,0,1-11.7-2.07c-7.43-3.28-10-10.55-5.28-17.19,5.57-7.84,11.83-15.27,19.68-21a22.93,22.93,0,0,1,19.85-4c13.82,3.51,27.67,6.86,41.86,8.6a13.63,13.63,0,0,1,4.77,1.34c5.81,3.12,13.72,6.76,13.55,13-.17,5.84-6.73,11.07-12.94,14.05a63.44,63.44,0,0,1-18.13,5.24C653.93,403.08,642,404.45,630,403.43Z" />
        <!-- H -->
        <path class="color" d="M1023,1761.44c13.42-6.51,26.71-13.28,40.27-19.47,37.71-17.22,72.94-38.65,106.6-62.71,39.32-28.1,76.4-58.92,112.14-91.45,40.9-37.22,74.42-80.65,107.78-124.35,39.93-52.3,75.46-107.29,105-166.13,34.17-68.11,60.48-139.15,80.08-212.75,8.4-31.52,17.88-62.76,24.8-94.66a812.34,812.34,0,0,0,17.7-127.32c1.62-28.93,1.68-57.87,2.5-86.81,1.15-40.63.36-81.29,1.11-121.91.55-29.66.11-59.31.5-89q1.47-110.43,3-220.85c.16-12,.4-24,.52-36,.29-28-.07-56,1-83.93.68-17.32.48-34.62.81-51.92.16-8.69,2.29-11.18,10.91-12.18a80.92,80.92,0,0,1,10-.32q177,1.13,354,2.29a42.48,42.48,0,0,1,6,.29c8.67,1.31,13,5.7,13.63,14.52s1.1,18,1.1,27q.11,274,.08,548a119.47,119.47,0,0,0,.69,16c1.26,9.25,6.22,14.26,15.43,15.9a73.25,73.25,0,0,0,12,.82q22.5.24,45,.25,167.49.24,335,.45a105.37,105.37,0,0,0,17.93-1.14c8.13-1.38,13.06-6.12,14.67-14.27a86.36,86.36,0,0,0,1.16-16.92q0-281.5,0-563c0-5.32.22-10.66.65-16,.46-5.64,3.65-9,9.26-10.27s11.23-1.34,16.9-1.33q76.5.14,153,.23,117.49,0,235-.19a93.12,93.12,0,0,1,14.95.81c7.85,1.27,11,4.68,11.74,12.61.57,5.95.52,12,.52,18q0,770.5,0,1541a114.69,114.69,0,0,1-1,15.94c-1.1,7.75-3.76,10.46-11.27,11.86a60.42,60.42,0,0,1-10.92.88q-198.49.08-397,0c-19,0-21.71-2.7-21.76-22.22-.12-45,0-90,0-135q0-147.51,0-295,0-68,.24-136a116.86,116.86,0,0,0-.39-12c-1.74-17-7.85-23-24.78-23.77-10-.47-20-.41-30-.4-72.33,0-144.67,0-217,.23-46,.16-92,.76-138,1.26a118,118,0,0,0-16.91,1.31c-9.21,1.47-13.31,5.82-14.38,15.23a152.36,152.36,0,0,0-.64,17q0,278.49,0,557a117.66,117.66,0,0,1-1.22,19.93c-1.08,6.35-4.65,10-11,11.28s-12.6,1.16-18.93,1.17l-316,.11q-238.5.06-477,.09c-56.67,0-113.33-.28-170-.43h-4.8C1019.41,1763.2,1020.24,1762.79,1023,1761.44Z" />
        <!-- E -->
        <path class="color" d="M3233.47,963q0-342,0-684c0-30.33-.28-60.66-.34-91a75.43,75.43,0,0,1,.81-12.94c1.38-8.09,5.07-11.69,13.16-12.7a120.57,120.57,0,0,1,15-.46q404,.07,808,.19c11.66,0,23.33-.42,35-.17,13.16.3,17.07,4.39,17.76,17.55.13,2.66.07,5.33.07,8q0,158,0,316a83.69,83.69,0,0,1-.47,12c-1.42,9.92-5.7,14-15.74,14.81-6.63.52-13.32.4-20,.38q-124.48-.43-249-.93-66.49-.26-133-.44a122.94,122.94,0,0,0-17,.89c-9.45,1.3-14.19,5.92-16.07,15.26a56.25,56.25,0,0,0-1,10.93q-.07,104,0,208a49.31,49.31,0,0,0,1,9.93c1.61,7.67,6.48,12.36,14.2,13.49a103.54,103.54,0,0,0,14.95.85q90.49-.14,181-.41,79.5-.19,159-.37a92,92,0,0,1,13,.5c9.47,1.34,14.14,6.14,15.34,15.64a102,102,0,0,1,.56,13q0,145,0,290c0,25.57-3.35,29-28.57,29q-170,0-340,0a90.42,90.42,0,0,0-13,.49c-10.61,1.54-15.89,7.17-17.05,17.77a81.48,81.48,0,0,0-.27,9q0,103,0,206c0,23.22,3.83,27.22,27.47,27.25q128,.18,256,.06,96,0,192,0a84.76,84.76,0,0,1,12.94.88c8.36,1.3,11.65,4.7,12.2,13.17.45,7,.18,14,.12,21-.83,102.66-.2,205.31.15,308,0,2.34,0,4.67,0,7-.15,12.92-3.53,16.35-16.65,16.84-2.66.1-5.33,0-8,0q-442,.06-884,.1a135.92,135.92,0,0,1-15-.41c-9-1-12-4.2-13.53-13.17-1.05-6.29-.85-12.63-.85-19V963Z" />
        <!-- P -->
        <path class="color" d="M4419,970q0-352.93,0-705.87c0-19,.17-38,.11-57a129.62,129.62,0,0,1,1.68-18.89c1.35-9.47,3.1-11.26,12.52-12.34,17.55-2,35.13-3.67,52.65-5.81,59.21-7.22,118.67-11.82,178.06-17.18,63.75-5.76,127.74-7,191.75-6.53,42,.3,84,.63,125.88,3.43,28.64,1.92,56.83,7.11,85,12.18,37.35,6.73,74.83,12.82,111.26,23.93,49.64,15.15,96.85,35.73,141,63.05,78.24,48.46,130.55,117.57,160,204.2,22.3,65.52,29.31,133.09,24.85,202C5499,729.1,5481.58,799.71,5450,866.89c-39.68,84.29-97.36,153.63-170.45,211.05-84.62,66.49-180.46,107.1-285.53,127.24-20.95,4-42.35,4.84-63.59,6.71-18.91,1.67-37.85,3-56.78,4.62a63.81,63.81,0,0,0-7.9,1.19c-10,2.13-14,6.7-15,17.08-.28,3-.29,6-.29,9q-.18,107-.29,214,0,139.47.24,278.94c0,5.32-.43,10.64-.89,15.95-.51,5.72-3.7,9.17-9.49,9.83a108.57,108.57,0,0,1-11.94.86q-192.47.12-384.93.13c-18.68,0-22.95-4.08-23.91-22.59-.22-4.32-.18-8.66-.18-13Q4419,1348.91,4419,970ZM4850.38,684.9V866.81c0,3.66,0,7.33.12,11,.7,15.9,6.33,21.54,22.11,21.87a195.76,195.76,0,0,0,46.63-4.62c68.05-15.17,115.15-56.2,143.45-119,20-44.27,26-91.41,23.6-139.59a216.27,216.27,0,0,0-23.21-88.23c-12.75-25.13-31-44.55-56.13-57.72-43.17-22.64-89-28.47-136.76-22.34-14,1.79-18.54,7.35-19.7,21.82-1,13-.14,26-.13,39Q4850.42,607,4850.38,684.9Z" />
        <!-- L -->
        <path class="color" d="M5714.85,963.83v-14q0-379.47,0-758.94a120.64,120.64,0,0,1,.42-14c1-8.8,4.42-12.41,13.05-13.93a69,69,0,0,1,11.94-.83q197-.06,394,0c18.69,0,22.37,3.62,22.74,22,.07,3.33,0,6.66,0,10q0,558.94,0,1117.9c0,19.33-.31,38.66-.39,58a67.84,67.84,0,0,0,.59,11c1.3,8.13,6.22,13.18,14.28,14.68a65.22,65.22,0,0,0,11.95.74q234.48,0,468.95-.15c3,0,6-.16,9-.17,14.19-.06,23.77,9.23,23.78,23.55q.07,162,0,324c0,14.12-4,18.15-18.3,19.41-3.64.32-7.32.34-11,.34q-455,0-909.92,0a187.22,187.22,0,0,1-19-.76c-8.88-.9-11.34-3.73-12.06-12.79-.24-3-.22-6-.22-9q0-385,0-769.93v-7Z" />
    </g>
</svg>
